<svg xmlns="http://www.w3.org/2000/svg" xmlns:xlink="http://www.w3.org/1999/xlink" viewBox="0 0 598.68 106.3">
  <defs>
    <style>.cls-1{fill:url(#logo);}</style>
    <radialGradient id="logo" cx="299.34" cy="53.15" r="222" gradientUnits="userSpaceOnUse">
      <stop offset="0" stop-color="#006e9f"/>
      <stop offset="1" stop-color="#1a2862"/>
    </radialGradient>
  </defs>
  <g id="logo-g" data-name="logo-g">
    <path class="cls-1" d="M477.94,48.68V44.39c0-5.38-1.1-9-3.3-10.77s-6.09-2.7-11.65-2.7H410.45v57h13.87V41.57h39.61v7.11Z"/>
    <path class="cls-1" d="M393.21,87.91V44.39c0-5.38-1.1-9-3.3-10.77s-6.09-2.7-11.66-2.7H325.71v57h13.88V41.57H379.2V87.91Z"/>
    <rect class="cls-1" x="493.82" y="30.92" width="13.88" height="56.99"/>
    <path class="cls-1" d="M240.14,30.92V74.44q0,8.09,3.24,10.77T255,87.91h37.72q8.35,0,11.66-2.7t3.3-10.77V30.92h-14V77.27H254V30.92Z"/>
    <polygon class="cls-1" points="592.62 30.92 576.59 30.92 558.53 49.38 539.4 30.92 520.81 30.92 549.51 58.67 521.35 87.91 537.79 87.91 557.86 66.62 579.69 87.91 598.68 87.91 566.62 57.06 592.62 30.92"/>
    <rect class="cls-1" x="493.82" y="18.39" width="13.88" height="9.11"/>
    <polygon class="cls-1" points="21.74 11.56 102.19 11.56 108.86 0 28.41 0 21.74 11.56"/>
    <rect class="cls-1" x="149.02" y="18.39" width="70.03" height="12.12"/>
    <polygon class="cls-1" points="96.35 33.74 114.24 63.95 120.47 53.15 102.59 22.17 81.53 22.17 63.65 53.15 92.06 102.37 98.74 90.8 77 53.15 88.24 33.74 96.35 33.74"/>
    <polygon class="cls-1" points="0 49.22 13.35 49.22 22.29 33.74 65.77 33.74 72.44 22.17 15.61 22.17 0 49.22"/>
    <polygon class="cls-1" points="149.02 87.91 165.18 87.91 165.18 61.5 219.05 61.5 219.05 48.84 149.02 48.84 149.02 87.91"/>
    <polygon class="cls-1" points="28.41 106.3 85.24 106.3 56.83 57.09 43.48 57.09 65.22 94.74 35.09 94.74 13.35 57.09 0 57.09 28.41 106.3"/>
  </g>
</svg>